<svg width="50" height="58" viewBox="0 0 50 58" fill="none" xmlns="http://www.w3.org/2000/svg">
<path d="M49.7675 47.4757L40.5209 31.4596C43.0126 28.1782 44.4937 24.0895 44.4937 19.661C44.4937 8.81985 35.7239 0 24.9444 0C14.1649 0 5.39513 8.81985 5.39513 19.661C5.39513 24.1271 6.90154 28.2473 9.43155 31.5426L0.233002 47.4757C-0.502945 48.7502 0.613934 50.2957 2.05343 50.0048C2.32679 49.9433 0.384034 50.3579 9.66693 48.3945L12.0893 56.0106C12.5419 57.4254 14.4647 57.6203 15.1956 56.3337C25.4368 38.3976 24.9432 39.2098 25.0272 39.2093L34.8052 56.3342C35.5465 57.6301 37.4732 57.4112 37.9155 55.9967L40.3336 48.3946L47.9341 50.0023C49.4082 50.297 50.4964 48.7369 49.7675 47.4757ZM24.9444 3.35131C33.876 3.35131 41.1424 10.6678 41.1424 19.661C41.1424 28.5926 33.876 35.859 24.9444 35.859C16.0128 35.859 8.74644 28.5926 8.74644 19.661C8.74644 10.6678 16.0128 3.35131 24.9444 3.35131ZM14.1445 51.4156L12.401 45.9336C12.14 45.1129 11.2999 44.6246 10.4575 44.8019L4.97722 45.961L11.8089 34.1276C14.4279 36.5078 17.694 38.187 21.3079 38.8697L14.1445 51.4156ZM39.5431 44.8019C38.7 44.6239 37.8606 45.113 37.5997 45.9334L35.8559 51.4156L28.6815 38.8505C32.2891 38.1493 35.5456 36.4535 38.1526 34.0601L45.0234 45.961L39.5431 44.8019Z" fill="#F8721F"/>
<path d="M19.7477 17.7537C21.1414 17.6093 21.7691 15.9279 20.7676 14.9007C20.0222 14.176 18.8902 14.285 18.2865 15.0235C17.3405 16.1873 18.2785 17.9001 19.7477 17.7537ZM23.3012 14.179C23.4903 15.0911 24.3516 15.6674 25.2718 15.495C26.2234 15.2958 26.7653 14.3862 26.5867 13.5243C26.4083 12.5821 25.4244 11.9553 24.4585 12.2485C23.5913 12.5263 23.1459 13.3502 23.3012 14.179ZM30.4719 17.7537C31.8656 17.6093 32.4933 15.9279 31.4918 14.9007C30.7464 14.176 29.6144 14.285 29.0107 15.0235C28.0646 16.1873 29.0027 17.9001 30.4719 17.7537ZM24.9445 17.0436C21.2961 17.0436 18.328 20.0116 18.328 23.6601V23.8998C18.328 26.3525 20.6729 28.1238 23.033 27.4489C24.2822 27.0917 25.6066 27.0917 26.8558 27.4489C29.2153 28.1231 31.5608 26.3532 31.5608 23.8998V23.6601C31.5609 20.0117 28.5928 17.0436 24.9445 17.0436ZM28.2096 23.8997C28.2098 23.9523 28.1978 24.0043 28.1744 24.0515C28.151 24.0986 28.1169 24.1397 28.0749 24.1714C28.0329 24.2031 27.9841 24.2246 27.9323 24.2342C27.8805 24.2437 27.8272 24.2411 27.7767 24.2264C25.9257 23.6972 23.9634 23.6972 22.1124 24.2264C21.9779 24.2649 21.8755 24.2184 21.8146 24.171C21.6778 24.0645 21.6794 23.9102 21.6794 23.6601C21.6794 21.8597 23.1441 20.3949 24.9446 20.3949C26.745 20.3949 28.2098 21.8596 28.2098 23.6601L28.2096 23.8997Z" fill="#F8721F"/>
</svg>
