<svg width="18" height="18" viewBox="0 0 18 18" fill="none" xmlns="http://www.w3.org/2000/svg">
<path d="M9 1.05469C10.8332 1.05543 12.6098 1.68991 14.0288 2.85064C15.4477 4.01137 16.4218 5.62695 16.7859 7.42366C17.15 9.22037 16.8818 11.0877 16.0266 12.7093C15.1715 14.3308 13.7821 15.6069 12.0938 16.3213C10.152 17.1418 7.96388 17.1574 6.01068 16.3645C4.05748 15.5717 2.49922 14.0355 1.67871 12.0938C0.858198 10.152 0.842638 7.96388 1.63546 6.01068C2.42827 4.05748 3.96452 2.49922 5.90625 1.67871C6.88497 1.26454 7.93725 1.05228 9 1.05469ZM9 0C4.02961 0 0 4.02961 0 9C0 13.9704 4.02961 18 9 18C13.9704 18 18 13.9704 18 9C18 4.02961 13.9704 0 9 0Z" fill="#F8721F"/>
<path d="M11.6259 13.8468C11.1031 13.8117 10.3663 13.6313 9.64697 13.374C7.1108 12.4663 4.63615 10.0479 4.11021 6.66512C4.01669 6.0629 4.11513 5.5127 4.57146 5.06481C4.72439 4.91505 4.86044 4.74841 5.00986 4.59512C5.57236 4.0161 6.39431 4.00133 6.97685 4.55751C7.16142 4.73329 7.34916 4.90661 7.52916 5.08801C7.77564 5.33108 7.91835 5.6602 7.92733 6.00626C7.93631 6.35231 7.81086 6.68839 7.57732 6.94391C7.43669 7.10001 7.28904 7.24837 7.14068 7.39637C6.97861 7.55809 6.77716 7.65091 6.56095 7.71841C6.29412 7.80208 6.24455 7.91387 6.36584 8.16876C7.13224 9.77399 8.33189 10.9298 9.96478 11.6362C10.1831 11.7304 10.284 11.6879 10.3719 11.4713C10.5645 10.9964 10.9179 10.6501 11.3239 10.3702C11.7834 10.0538 12.4415 10.1241 12.8768 10.4982C13.1154 10.7033 13.3434 10.9203 13.5599 11.1486C13.7928 11.3978 13.9222 11.7263 13.9219 12.0674C13.9216 12.4085 13.7915 12.7368 13.5581 12.9855C13.4902 13.0593 13.4203 13.1314 13.3552 13.2073C12.9636 13.6626 12.4669 13.8757 11.6259 13.8468Z" fill="#F8721F"/>
</svg>
