<svg width="30" height="30" viewBox="0 0 30 30" fill="none" xmlns="http://www.w3.org/2000/svg">
<rect width="30" height="30" rx="10" fill="#F6F2ED"/>
<path d="M14.2101 22.856C14.1556 22.856 14.1018 22.8447 14.0519 22.8229C14.002 22.8011 13.9572 22.7691 13.9202 22.7292L6.10487 14.2752C6.05277 14.2188 6.01824 14.1485 6.00549 14.0728C5.99273 13.9971 6.00233 13.9194 6.03308 13.8491C6.06384 13.7787 6.11443 13.7189 6.17866 13.6769C6.24289 13.6349 6.31798 13.6125 6.39473 13.6125H10.1566C10.2131 13.6125 10.2689 13.6246 10.3203 13.6481C10.3717 13.6715 10.4175 13.7056 10.4546 13.7483L13.0665 16.7532C13.3488 16.1498 13.8952 15.1451 14.8541 13.9208C16.2717 12.111 18.9085 9.44919 23.4197 7.04632C23.5069 6.99989 23.6084 6.98784 23.704 7.01255C23.7996 7.03726 23.8825 7.09693 23.9363 7.17979C23.9901 7.26265 24.0109 7.36266 23.9946 7.46009C23.9782 7.55751 23.9259 7.64526 23.848 7.70601C23.8308 7.71947 22.0914 9.08922 20.0896 11.5982C18.2473 13.907 15.7982 17.6823 14.5931 22.5561C14.572 22.6418 14.5227 22.7178 14.4533 22.7722C14.3838 22.8266 14.2982 22.8561 14.21 22.8561L14.2101 22.856Z" fill="#F8721F"/>
</svg>
