<svg width="18" height="18" viewBox="0 0 18 18" fill="none" xmlns="http://www.w3.org/2000/svg">
<g clip-path="url(#clip0_2382_2006)">
<path d="M15.364 2.63602C13.6641 0.936211 11.4039 0 9 0C6.59605 0 4.33589 0.936176 2.63602 2.63602C0.936211 4.33589 0 6.59605 0 9C0 11.4039 0.936176 13.6641 2.63602 15.364C4.33589 17.0638 6.59605 18 9 18C11.4039 18 13.6641 17.0638 15.364 15.364C17.0638 13.6641 18 11.4039 18 9C18 6.59605 17.0638 4.33589 15.364 2.63602ZM3.90604 15.0925C4.20325 12.5354 6.40174 10.5612 9 10.5612C10.3697 10.5612 11.6577 11.0948 12.6266 12.0636C13.4451 12.8822 13.9613 13.951 14.0941 15.0923C12.7139 16.2482 10.9369 16.9453 9 16.9453C7.0631 16.9453 5.2862 16.2484 3.90604 15.0925ZM9 9.47486C7.49282 9.47486 6.26646 8.24854 6.26646 6.74135C6.26646 5.23403 7.49285 4.00781 9 4.00781C10.5071 4.00781 11.7335 5.23403 11.7335 6.74135C11.7335 8.24854 10.5072 9.47489 9 9.47489V9.47486ZM15.0018 14.2008C14.7309 13.1095 14.1675 12.1128 13.3723 11.3179C12.7241 10.6696 11.9572 10.1834 11.1209 9.87862C12.1263 9.19681 12.7882 8.04488 12.7882 6.74135C12.7882 4.65258 11.0888 2.95312 9 2.95312C6.91123 2.95312 5.21177 4.65258 5.21177 6.74135C5.21177 8.04558 5.87426 9.19789 6.88046 9.87961C6.111 10.16 5.39898 10.5936 4.78635 11.1643C3.89918 11.9905 3.28314 13.0439 2.99749 14.2C1.78777 12.8054 1.05469 10.9867 1.05469 9C1.05469 4.61893 4.61893 1.05469 9 1.05469C13.3811 1.05469 16.9453 4.61893 16.9453 9C16.9453 10.9871 16.212 12.8062 15.0018 14.2008Z" fill="#F8721F"/>
</g>
<defs>
<clipPath id="clip0_2382_2006">
<rect width="18" height="18" fill="white"/>
</clipPath>
</defs>
</svg>
