<svg width="18" height="18" viewBox="0 0 18 18" fill="none" xmlns="http://www.w3.org/2000/svg">
<path d="M13.5003 16.3127H4.50027C4.12028 16.3567 3.73524 16.3143 3.37397 16.1885C3.0127 16.0627 2.68454 15.8569 2.41404 15.5864C2.14355 15.3159 1.93772 14.9878 1.81195 14.6265C1.68618 14.2652 1.64373 13.8802 1.68777 13.5002V7.29919C1.68776 6.89769 1.78704 6.50242 1.97678 6.14858C2.16652 5.79475 2.44083 5.49333 2.77527 5.27119L7.44027 2.16019C7.90193 1.85137 8.44485 1.68652 9.00027 1.68652C9.55569 1.68652 10.0986 1.85137 10.5603 2.16019L15.2253 5.27119C15.5589 5.49331 15.8325 5.79436 16.0218 6.14761C16.2111 6.50087 16.3103 6.8954 16.3105 7.29619V13.5002C16.3545 13.88 16.3121 14.2648 16.1864 14.6259C16.0608 14.987 15.8552 15.315 15.5849 15.5854C15.3147 15.8559 14.9868 16.0618 14.6259 16.1877C14.2649 16.3136 13.8801 16.3564 13.5003 16.3127ZM9.00027 2.81269C8.667 2.81263 8.34123 2.91156 8.06427 3.09694L3.39702 6.20719C3.21714 6.32691 3.06967 6.48927 2.96773 6.6798C2.8658 6.87033 2.81256 7.0831 2.81277 7.29919V13.5002C2.81277 14.6829 3.31752 15.1877 4.50027 15.1877H13.5003C14.683 15.1877 15.1878 14.6829 15.1878 13.5002V7.29919C15.188 7.0831 15.1347 6.87033 15.0328 6.6798C14.9309 6.48927 14.7834 6.32691 14.6035 6.20719L9.93627 3.09619C9.65932 2.91081 9.33354 2.81263 9.00027 2.81269ZM9.64302 11.2059L13.081 8.70544C13.2016 8.61772 13.2823 8.4857 13.3055 8.33844C13.3287 8.19118 13.2925 8.04073 13.2048 7.92019C13.1171 7.79964 12.985 7.71889 12.8378 7.69568C12.6905 7.67247 12.5401 7.70872 12.4195 7.79644L8.98227 10.2962C8.9586 10.3133 8.93012 10.3226 8.9009 10.3226C8.87167 10.3226 8.84319 10.3133 8.81952 10.2962L5.38152 7.79569C5.32198 7.75002 5.25391 7.71673 5.18131 7.69777C5.10871 7.67881 5.03304 7.67457 4.95878 7.6853C4.88452 7.69602 4.81315 7.7215 4.74888 7.76023C4.68461 7.79895 4.62874 7.85015 4.58455 7.9108C4.54037 7.97144 4.50876 8.04032 4.4916 8.11336C4.47444 8.18641 4.47206 8.26215 4.48462 8.33613C4.49717 8.41011 4.5244 8.48083 4.5647 8.54412C4.605 8.60742 4.65755 8.66201 4.71927 8.70469L8.15727 11.2052C8.37296 11.3626 8.6331 11.4475 8.90015 11.4475C9.16719 11.4475 9.42733 11.3626 9.64302 11.2052V11.2059Z" fill="#F8721F"/>
</svg>
