<svg width="48" height="42" viewBox="0 0 48 42" fill="none" xmlns="http://www.w3.org/2000/svg">
<path d="M32.0984 22.4653C29.9385 19.0918 26.2599 17.0775 22.2579 17.0775C18.2564 17.0775 14.5774 19.0918 12.4179 22.4653L7.21328 30.594C6.34976 31.9428 5.95132 33.5006 6.06082 35.0988C6.17032 36.6973 6.77786 38.1859 7.81753 39.4042C8.85793 40.6222 10.2327 41.4544 11.7931 41.8116C13.3535 42.1683 14.9531 42.0161 16.4187 41.3712L16.5143 41.3287C20.2024 39.7371 24.4178 39.7514 28.0968 41.3712C29.0456 41.7888 30.0509 42 31.0653 42C31.6168 42 32.1716 41.9373 32.7213 41.8119C34.2817 41.4552 35.6565 40.6229 36.6972 39.4049C37.7373 38.187 38.3452 36.6981 38.4551 35.0995C38.5649 33.5006 38.1665 31.9428 37.303 30.5936L32.0984 22.4653ZM34.5589 37.574C33.2351 39.1234 31.0935 39.6132 29.2295 38.7927C27.0139 37.817 24.6357 37.3294 22.2568 37.3294C19.8801 37.3294 17.5023 37.8167 15.2882 38.7912L15.2252 38.8191C13.3755 39.6022 11.2654 39.1061 9.9562 37.574C8.63381 36.0242 8.4833 33.8302 9.58193 32.114L14.7869 23.9853C16.4268 21.424 19.2195 19.8948 22.2579 19.8948C25.2964 19.8948 28.0895 21.424 29.7297 23.9853L34.9339 32.1137C36.0329 33.8306 35.8821 36.0249 34.5589 37.574Z" fill="#F8721F"/>
<path d="M8.61514 22.4546C10.1635 21.8592 11.3397 20.6101 11.9275 18.9371C12.4863 17.3452 12.4406 15.5479 11.7979 13.8761C11.1548 12.2053 9.98513 10.8414 8.50454 10.0352C6.94851 9.18863 5.23941 9.05078 3.69364 9.6473C0.583779 10.8444 -0.843343 14.6918 0.512734 18.2258C1.59598 21.0387 4.12247 22.8143 6.67679 22.8143C7.32901 22.8143 7.98306 22.6984 8.61514 22.4546ZM3.13846 17.2139C2.33939 15.1314 3.04142 12.9162 4.70438 12.2761C5.00467 12.1602 5.32217 12.1027 5.64627 12.1027C6.14651 12.1027 6.66324 12.2394 7.16055 12.5104C8.05484 12.9969 8.76931 13.8416 9.17214 14.8884C9.57461 15.9358 9.6105 17.0416 9.27285 18.0026C8.9634 18.8832 8.37124 19.5307 7.60586 19.8251L7.6044 19.8258C5.94363 20.4667 3.9401 19.2946 3.13846 17.2139Z" fill="#F8721F"/>
<path d="M18.7138 16.0862C22.6014 16.0862 25.7644 12.4785 25.7644 8.044C25.7644 3.60843 22.6014 0 18.7138 0C14.8264 0 11.6638 3.60843 11.6638 8.044C11.6638 12.4785 14.8264 16.0862 18.7138 16.0862ZM18.7138 2.81687C21.0498 2.81687 22.9508 5.16187 22.9508 8.044C22.9508 10.925 21.0498 13.2693 18.7138 13.2693C16.3777 13.2693 14.4774 10.925 14.4774 8.044C14.4774 5.16187 16.3777 2.81687 18.7138 2.81687Z" fill="#F8721F"/>
<path d="M30.8902 18.062C31.4883 18.2607 32.0987 18.3556 32.7063 18.3556C35.5415 18.3556 38.3045 16.2896 39.3589 13.1146C39.966 11.2869 39.9261 9.35435 39.2464 7.67333C38.5353 5.91384 37.2173 4.63648 35.5349 4.07626C33.8525 3.51677 32.0321 3.74995 30.4101 4.73327C28.8607 5.67296 27.6735 7.1967 27.0674 9.02438C25.7875 12.8799 27.5024 16.9342 30.8902 18.062ZM29.7374 9.91274C30.1333 8.71934 30.8899 7.73602 31.868 7.1428C32.7729 6.59395 33.7602 6.45426 34.6476 6.7494C35.5345 7.04491 36.2413 7.74812 36.6383 8.72997C37.0671 9.79102 37.0854 11.0324 36.6888 12.2258C35.8982 14.6075 33.6951 16.0264 31.7779 15.3888C29.8623 14.7509 28.9468 12.2944 29.7374 9.91274Z" fill="#F8721F"/>
<path d="M45.7382 17.1234L45.7371 17.1223C43.0561 15.1395 39.0465 15.9989 36.7983 19.039C34.5523 22.0807 34.9035 26.1698 37.5805 28.154C38.5569 28.8781 39.7104 29.2242 40.8911 29.2242C42.9488 29.2242 45.0897 28.1727 46.5205 26.239C48.7664 23.1974 48.4156 19.1083 45.7382 17.1234ZM44.2591 24.5632C42.9316 26.3571 40.6871 26.9522 39.2549 25.89C37.8237 24.8293 37.7365 22.5071 39.0604 20.7142C39.9404 19.5241 41.2258 18.862 42.4105 18.862C43.0096 18.862 43.5831 19.0313 44.065 19.3881C45.4951 20.4499 45.5819 22.7714 44.2591 24.5632Z" fill="#F8721F"/>
</svg>
