<svg width="46" height="47" viewBox="0 0 46 47" fill="none" xmlns="http://www.w3.org/2000/svg">
<path d="M39.5204 4.93235L35.6261 0H25.7269C22.9062 0 20.658 2.4497 20.658 5.27108V11.0802C20.658 13.3357 22.1388 15.2434 24.1588 15.8449C24.0361 18.3838 23.3253 21.4224 20.6617 21.6737C15.6415 22.1475 12.6416 27.0538 12.6416 31.5233V38.7258L1.9966 38.7336V40.1105C1.9966 43.9094 5.02146 47 8.73946 47H42.7486V42.6218C42.7486 40.3135 41.3237 38.2883 39.2863 37.4986V30.479C40.2329 29.0351 40.731 27.3585 40.731 25.6009V15.149C43.7162 14.6438 46 11.9821 46 8.78424V4.93235H39.5204ZM23.3534 11.0803V5.18965C23.3534 3.84657 24.4184 2.75391 25.7269 2.75391H27.678V11.0803C27.678 12.2985 26.7079 13.2896 25.5157 13.2896C24.3235 13.2896 23.3534 12.2984 23.3534 11.0803ZM26.845 16.0435H38.0356V18.8099H26.4729C26.6885 17.8783 26.7981 16.9266 26.845 16.0435ZM12.6416 44.2462H8.73937C6.97825 44.2462 5.47643 43.0912 4.9211 41.4798H12.6416V44.2462ZM37.7577 39.9253C39.0664 40.1064 40.0533 41.2657 40.0533 42.6219V44.2462H33.8988V29.632H31.2035V38.3543C30.0716 37.5299 28.6226 37.1523 27.243 37.1462C27.0532 35.9123 26.594 34.7403 25.8877 33.7031C24.9581 32.3385 23.6689 31.3007 22.159 30.7021L21.1838 33.2695C23.2552 34.0908 24.6468 36.1729 24.6468 38.4507V39.9001H27.5075C29.5455 39.9001 31.2035 41.6008 31.2035 43.6911V44.2462H15.337V31.5234C15.337 28.3582 17.4675 24.7409 20.9096 24.4161C22.8464 24.2333 24.3782 23.2542 25.4008 21.5638H38.0356V25.601C38.0356 27.0676 37.5027 28.463 36.5909 29.5822V39.7639L37.7577 39.9253ZM43.3047 8.78424C43.3047 10.8229 41.6878 12.4814 39.7003 12.4814H38.0357V13.2895H29.8637C30.1891 12.6237 30.3733 11.8737 30.3733 11.0802V2.75391H34.3375L38.2318 7.68626H43.3047V8.78424Z" fill="#F8721F"/>
<path d="M8.94808 0C4.01413 0 0 4.10333 0 9.14703C0 14.1907 4.01413 18.2941 8.94808 18.2941C13.882 18.2941 17.8961 14.1907 17.8961 9.14703C17.8961 4.10333 13.882 0 8.94808 0ZM8.94808 15.5401C5.50032 15.5401 2.69531 12.6722 2.69531 9.14703C2.69531 5.62183 5.50032 2.75391 8.94808 2.75391C12.3958 2.75391 15.2008 5.62183 15.2008 9.14703C15.2008 12.6722 12.3958 15.5401 8.94808 15.5401Z" fill="#F8721F"/>
<path d="M10.2957 5.55565H7.60042V7.82873H5.37769V10.5826H7.60042V12.8557H10.2957V10.5826H12.5183V7.82873H10.2957V5.55565Z" fill="#F8721F"/>
</svg>
