<svg width="54" height="54" viewBox="0 0 54 54" fill="none" xmlns="http://www.w3.org/2000/svg">
<path d="M38.3609 53.9996C38.3944 54.0005 38.3273 53.9996 38.3609 53.9996Z" fill="#F8721F"/>
<path d="M53.4775 46.515L48.8325 38.7934L47.3185 29.008C47.4986 28.8246 47.6131 28.5759 47.6209 28.2992L47.6403 27.6083C48.2269 28.4186 49.1805 28.9362 50.2236 28.9361C50.4764 28.9361 50.7301 28.9057 50.9773 28.8458C52.6383 28.4437 53.6955 26.7355 53.334 25.038C53.334 25.038 51.9271 18.4316 51.9244 18.4202C51.6443 17.2909 50.7879 16.248 49.6894 15.6983C49.683 15.6951 45.7077 13.813 45.546 13.7485C46.3982 12.8861 46.9392 11.7129 46.9754 10.4084C47.0508 7.67902 44.8917 5.39708 42.1624 5.32156C40.8418 5.28444 39.5829 5.76548 38.6222 6.67463C37.6615 7.58367 37.1122 8.81249 37.0757 10.1347C37.0391 11.4568 37.5196 12.7141 38.4287 13.6748C38.601 13.857 38.7848 14.0241 38.9786 14.1759L33.4617 17.5351L31.059 14.3733C29.996 12.9739 27.9922 12.7004 26.5919 13.7638C25.1923 14.8273 24.919 16.8311 25.9826 18.2308L30.1722 23.7444C30.789 24.5559 31.7309 25.0056 32.7063 25.0056C33.0598 25.0056 33.4178 24.9465 33.7661 24.8241C34.0054 24.7401 34.2349 24.627 34.4492 24.4878L36.5078 23.2701L36.3722 28.2409C36.3661 28.4592 36.4287 28.672 36.5474 28.8516L33.781 38.8163C33.6632 39.2522 33.6272 39.7011 33.6741 40.1503L34.7783 50.7231C34.9681 52.5402 36.5366 53.9491 38.3609 53.9996C38.4889 53.9996 38.6683 53.9937 38.7953 53.9804C39.7668 53.8789 40.6406 53.4052 41.2559 52.6465C41.8711 51.8878 42.154 50.9349 42.0526 49.9634L41.9847 49.3146C41.9242 48.7354 41.4065 48.3138 40.8262 48.3752C40.2468 48.4358 39.8263 48.9545 39.8868 49.5338L39.9546 50.1825C39.9975 50.5937 39.8778 50.9969 39.6175 51.3179C39.3572 51.639 38.9873 51.8395 38.5758 51.8825C38.5073 51.8897 38.4376 51.8921 38.3696 51.8905C37.5986 51.8691 36.9568 51.2731 36.8765 50.504L35.7723 39.9311C35.7524 39.7411 35.7675 39.5512 35.8155 39.3737L38.6055 29.3244H45.2335L46.7802 39.3208C46.8012 39.4561 46.8482 39.5859 46.9187 39.7032L51.6705 47.6023C51.8837 47.9565 51.946 48.3726 51.8462 48.7737C51.7465 49.1748 51.4965 49.5131 51.1422 49.7262C50.8881 49.8791 50.5973 49.9552 50.3041 49.9475C49.7725 49.9328 49.2918 49.6526 49.0184 49.1979L44.0093 40.871C43.9076 40.7019 43.84 40.5176 43.8081 40.3232L42.6928 33.513C42.6125 33.023 42.2014 32.6553 41.7056 32.6301C41.2118 32.6069 40.7634 32.9289 40.6339 33.4083L38.9319 39.7066C38.7799 40.2689 39.1125 40.848 39.6749 41C40.2371 41.1518 40.8162 40.8192 40.9681 40.2569L41.3989 38.6632L41.7266 40.6641C41.8019 41.1237 41.9616 41.5589 42.2017 41.9581L47.2109 50.2852C47.8571 51.3594 48.9917 52.0213 50.2459 52.056C50.2796 52.0569 50.3134 52.0574 50.3471 52.0574C51.0098 52.0574 51.6586 51.8772 52.2297 51.5337C53.9569 50.4942 54.5169 48.2429 53.4775 46.515ZM39.184 10.193C39.205 9.43403 39.5203 8.72875 40.0718 8.20689C40.6037 7.70359 41.3342 7.42916 42.0635 7.42916C42.0903 7.42916 42.0366 7.42947 42.0635 7.43021C43.6302 7.47356 44.9099 8.78349 44.8667 10.3501C44.8233 11.917 43.5089 13.1552 41.9467 13.1129C41.1877 13.0919 40.4824 12.7767 39.9606 12.2252C39.4389 11.6737 39.1629 10.9519 39.184 10.193ZM36.6347 18.6103L36.5755 20.7792C36.5755 20.7792 33.3228 22.7035 33.3076 22.7137C33.2316 22.764 33.1507 22.8045 33.0669 22.8339C32.6246 22.9893 32.1359 22.8425 31.8515 22.4681L27.6619 16.9545C27.3021 16.481 27.3945 15.803 27.8678 15.4434C28.3416 15.0834 29.0195 15.1759 29.3793 15.6494L32.3576 19.569C32.6846 19.9994 33.284 20.1129 33.7459 19.8317L36.6782 18.0462C36.6546 18.2322 36.6399 18.4204 36.6347 18.6103ZM44.7247 18.3278C44.1786 18.1257 43.5717 18.4043 43.3693 18.9505C43.1669 19.4968 43.4458 20.1036 43.9919 20.3059L45.7172 20.9451L45.541 27.215H38.5098L38.7431 18.6683C38.7968 16.7299 40.4333 15.1976 42.3706 15.2497C42.3685 15.2497 42.3671 15.2496 42.3716 15.2497H42.3706L42.3741 15.2498C43.3146 15.2509 44.273 15.4613 45.1202 15.8622L48.7538 17.5891C49.2819 17.8567 49.7393 18.3982 49.873 18.9135L51.2707 25.4774C51.3965 26.0684 51.0421 26.6597 50.4806 26.7958C50.3956 26.8163 50.3091 26.8268 50.2234 26.8268C49.7189 26.8268 49.2762 26.4674 49.1707 25.9724C49.1699 25.9682 49.1689 25.9642 49.1681 25.9601L47.8216 19.9868C47.7431 19.6386 47.4939 19.3537 47.1591 19.2297L44.7247 18.3278Z" fill="#F8721F"/>
<path d="M9.21958 53.5104C9.2469 53.5112 9.19247 53.5104 9.21958 53.5104Z" fill="#F8721F"/>
<path d="M23.5696 34.3556L21.6338 33.1133C20.47 32.3663 19.1523 31.8898 17.7842 31.7167L17.3534 30.2431L18.8453 28.4819C19.4468 27.7718 19.7355 26.8704 19.6584 25.9438C19.5813 25.0186 19.1485 24.1791 18.4395 23.5798L17.7091 22.9624C16.8763 22.2583 15.6247 22.3632 14.9192 23.1959C14.69 23.4664 14.3438 23.6066 13.9904 23.5717C12.2859 23.401 10.611 24.053 9.47682 25.3166C9.44465 25.3462 8.64794 26.2819 8.64794 26.2819C7.1755 28.0222 7.46828 30.6993 9.20829 32.1717L3.45817 38.9292C3.04906 39.41 2.74172 39.9421 2.53342 40.4995C2.41867 40.261 2.32206 40.008 2.25161 39.7492C2.10723 39.2185 1.9447 38.2026 2.47995 37.3626C2.79298 36.8714 2.64849 36.2195 2.15711 35.9064C1.66605 35.5934 1.01384 35.738 0.700913 36.2292C-0.0191187 37.3593 -0.191243 38.8062 0.216286 40.3032C0.586691 41.6641 1.38203 42.8534 2.34664 43.5237C2.58162 44.5111 3.10696 45.4413 3.91695 46.18C4.47478 46.6887 5.15019 47.0773 5.87023 47.3038C6.1957 47.4063 6.41655 47.716 6.40706 48.0571L6.33924 50.5085C6.31762 51.2886 6.60112 52.0305 7.13743 52.5974C7.67384 53.1643 8.43954 53.4889 9.21958 53.5104C10.5157 53.5103 11.7029 52.654 12.0656 51.4029L12.7059 49.1945C13.2488 47.322 13.1855 45.3568 12.5573 43.5572L17.4262 39.1321C17.7912 38.8003 18.3085 38.6895 18.7763 38.8422L21.0766 39.5937C22.6077 40.094 24.2626 39.2556 24.7658 37.7251C25.1816 36.46 24.6898 35.0744 23.5696 34.3556ZM13.7807 25.6705C14.7802 25.7707 15.7673 25.3923 16.444 24.6552L17.0777 25.1907C17.356 25.4259 17.5259 25.7556 17.5561 26.1189C17.5865 26.4836 17.4727 26.8386 17.2357 27.1185L15.377 29.3127C15.2641 29.446 15.1882 29.603 15.152 29.7686C15.006 29.0892 14.6431 28.4799 14.1039 28.0236L11.823 26.0933C12.4051 25.7556 13.0884 25.6014 13.7807 25.6705ZM10.3133 27.5793L12.7413 29.6338C12.9564 29.8159 13.0878 30.0708 13.1112 30.3517C13.1347 30.6325 13.0473 30.9057 12.8652 31.1207C12.4894 31.5649 11.8222 31.6205 11.3782 31.2447L10.4958 30.4979C9.64356 29.7768 9.59209 28.4315 10.3133 27.5793ZM22.7619 37.0663C22.6214 37.4938 22.1591 37.7281 21.7317 37.5885L19.4313 36.8371C18.244 36.4493 16.9324 36.7305 16.0075 37.571L11.5928 41.5833C11.5645 41.5393 11.5365 41.4951 11.5073 41.4515C11.1836 40.9673 10.5285 40.8373 10.0443 41.161C9.56014 41.4848 9.43009 42.1398 9.75388 42.624C10.9334 44.3882 11.271 46.5688 10.68 48.607L10.0397 50.8156C9.93666 51.1707 9.60781 51.41 9.23719 51.4013C9.02035 51.3953 8.81869 51.3053 8.66967 51.1476C8.52054 50.99 8.44175 50.7838 8.44776 50.5669L8.51558 48.1154C8.55102 46.8368 7.72362 45.6757 6.50335 45.2916C6.07399 45.1565 5.671 44.9247 5.33835 44.6212C4.08992 43.4828 3.96958 41.583 5.06466 40.2962L10.9357 33.3968C11.2974 33.5339 11.6777 33.6023 12.0573 33.6023C12.9565 33.6023 13.8505 33.222 14.4755 32.4834C14.9563 31.9152 15.2166 31.212 15.2241 30.4771L15.9622 33.0017C16.0889 33.4353 16.4778 33.74 16.929 33.7595C18.1959 33.8142 19.4288 34.2047 20.4947 34.8886L22.4304 36.131C22.741 36.3302 22.8774 36.7149 22.7619 37.0663Z" fill="#F8721F"/>
<path d="M20.6997 0C18.2233 0 16.2084 2.01479 16.2084 4.49133C16.2084 6.96788 18.2233 8.98267 20.6997 8.98267C23.1761 8.98267 25.191 6.96788 25.191 4.49133C25.191 2.01479 23.1761 0 20.6997 0ZM20.6997 6.87327C19.3863 6.87327 18.3178 5.80475 18.3178 4.49133C18.3178 3.17792 19.3863 2.1094 20.6997 2.1094C22.0131 2.1094 23.0816 3.17792 23.0816 4.49133C23.0816 5.80475 22.0131 6.87327 20.6997 6.87327Z" fill="#F8721F"/>
<path d="M40.4443 45.7581C41.0268 45.7581 41.499 45.2859 41.499 44.7034C41.499 44.1209 41.0268 43.6487 40.4443 43.6487C39.8618 43.6487 39.3896 44.1209 39.3896 44.7034C39.3896 45.2859 39.8618 45.7581 40.4443 45.7581Z" fill="#F8721F"/>
</svg>
