<svg width="44" height="43" viewBox="0 0 44 43" fill="none" xmlns="http://www.w3.org/2000/svg">
<path d="M43.8416 33.9436L41.2861 26.5596C42.5179 24.0595 43.1689 21.2791 43.1733 18.4815C43.1808 13.617 41.2852 9.01761 37.8355 5.53053C34.3851 2.04276 29.7873 0.079432 24.8888 0.00238677C19.8095 -0.0773034 15.0351 1.84089 11.4458 5.40442C7.98473 8.84057 6.06506 13.3705 6.0043 18.2113C2.59309 20.7612 0.57966 24.7368 0.586277 28.9832C0.589457 30.9703 1.03994 32.9456 1.89356 34.7318L0.1333 39.8176C-0.169286 40.6919 0.0517454 41.6412 0.710199 42.2949C1.17357 42.755 1.78451 43 2.4128 43C2.67714 43 2.94458 42.9567 3.2054 42.8677L8.32805 41.12C10.1272 41.9675 12.1167 42.4148 14.1182 42.4179C14.1254 42.4179 14.1323 42.4179 14.1395 42.4179C18.4802 42.4178 22.515 40.3672 25.0739 36.8975C27.7369 36.8279 30.3716 36.1879 32.7536 35.031L40.191 37.5683C40.5009 37.674 40.8187 37.7255 41.1328 37.7255C41.8794 37.7255 42.6054 37.4344 43.1562 36.8875C43.9385 36.1106 44.2012 34.9826 43.8416 33.9436ZM14.1393 39.8177C14.1337 39.8177 14.1278 39.8177 14.1222 39.8177C12.3507 39.815 10.5915 39.3814 9.03506 38.5639C8.71503 38.3959 8.33931 38.3668 7.99711 38.4835L2.74434 40.2755L4.54929 35.0605C4.66685 34.7207 4.63763 34.3476 4.46834 34.03C3.64488 32.4847 3.20815 30.7381 3.2054 28.9792C3.20101 26.1501 4.30952 23.4685 6.24802 21.4605C6.88121 25.2928 8.72087 28.8243 11.5725 31.6051C14.403 34.3653 17.961 36.1228 21.8 36.6973C19.7729 38.681 17.0404 39.8177 14.1393 39.8177ZM41.304 35.0488C41.2295 35.1228 41.1412 35.1429 41.0418 35.109L33.0799 32.3927C32.9416 32.3455 32.7978 32.3221 32.6544 32.3221C32.4431 32.3221 32.2325 32.3729 32.042 32.4731C29.7687 33.667 27.1999 34.3003 24.613 34.3042C24.6045 34.3042 24.5967 34.3042 24.5882 34.3042C15.9203 34.3042 8.76058 27.3135 8.62325 18.7098C8.55407 14.3767 10.2142 10.3044 13.2977 7.24301C16.3813 4.1816 20.4837 2.53396 24.8474 2.60221C33.5216 2.73881 40.5676 9.86033 40.5542 18.4774C40.5502 21.0457 39.9124 23.5962 38.7099 25.8531C38.5406 26.1707 38.5114 26.5437 38.629 26.8836L41.3648 34.7884C41.3989 34.8874 41.3784 34.975 41.304 35.0488Z" fill="#F8721F"/>
<path d="M32.3892 11.5611H16.7864C16.0631 11.5611 15.4769 12.1433 15.4769 12.8613C15.4769 13.5793 16.0632 14.1614 16.7864 14.1614H32.3892C33.1125 14.1614 33.6987 13.5792 33.6987 12.8613C33.6987 12.1433 33.1125 11.5611 32.3892 11.5611Z" fill="#F8721F"/>
<path d="M32.3892 16.9083H16.7864C16.0631 16.9083 15.4769 17.4905 15.4769 18.2084C15.4769 18.9264 16.0632 19.5086 16.7864 19.5086H32.3892C33.1125 19.5086 33.6987 18.9264 33.6987 18.2084C33.6987 17.4905 33.1125 16.9083 32.3892 16.9083Z" fill="#F8721F"/>
<path d="M26.3832 22.2553H16.7863C16.063 22.2553 15.4768 22.8375 15.4768 23.5554C15.4768 24.2735 16.0631 24.8556 16.7863 24.8556H26.3831C27.1064 24.8556 27.6926 24.2734 27.6926 23.5554C27.6926 22.8375 27.1064 22.2553 26.3832 22.2553Z" fill="#F8721F"/>
</svg>
