<svg width="26" height="23" viewBox="0 0 26 23" fill="none" xmlns="http://www.w3.org/2000/svg">
<path d="M17.181 12.0113C16.0249 10.2078 14.0558 9.13086 11.9137 9.13086C9.77159 9.13086 7.80255 10.2078 6.64661 12.0113L3.86076 16.3572C3.39854 17.0782 3.18527 17.9112 3.24388 18.7657C3.30249 19.6203 3.62769 20.4161 4.18419 21.0677C4.74109 21.7187 5.47695 22.1636 6.3122 22.3545C7.14745 22.5455 8.00367 22.4639 8.78815 22.1191L8.84068 22.0958C10.8146 21.2455 13.0702 21.2533 15.0391 22.1191C15.547 22.3424 16.085 22.4553 16.628 22.4553C16.9232 22.4553 17.2202 22.4218 17.5144 22.3547C18.3497 22.164 19.0855 21.7191 19.6426 21.0679C20.1993 20.4169 20.5247 19.6209 20.5835 18.7661C20.6423 17.9112 20.4291 17.0784 19.9669 16.357L17.181 12.0113Z" fill="#960000"/>
<path d="M4.61142 12.0054C5.4402 11.687 6.06982 11.0192 6.38424 10.1248C6.68356 9.27368 6.65906 8.3128 6.31504 7.41897C5.97083 6.52572 5.34474 5.79654 4.55203 5.36549C3.71933 4.91289 2.8045 4.83919 1.97709 5.15811C0.312479 5.7981 -0.451416 7.8551 0.274451 9.74451C0.854282 11.2483 2.20663 12.1977 3.57388 12.1977C3.923 12.1977 4.27309 12.1357 4.61142 12.0054Z" fill="#960000"/>
<path d="M10.0177 8.60023C12.0987 8.60023 13.7917 6.67143 13.7917 4.30061C13.7917 1.9292 12.0987 0 10.0177 0C7.93698 0 6.24414 1.9292 6.24414 4.30061C6.24414 6.67143 7.93698 8.60023 10.0177 8.60023Z" fill="#960000"/>
<path d="M16.535 9.65721H16.5352C16.8553 9.76345 17.1819 9.81422 17.5071 9.81422C19.0247 9.81422 20.5037 8.70966 21.068 7.01216C21.393 6.03502 21.3716 5.00181 21.0078 4.10308C20.6272 3.16219 19.9217 2.47927 19.0212 2.17995C18.1204 1.88064 17.1464 2.0055 16.2782 2.53122C15.4489 3.03341 14.8134 3.84825 14.4888 4.8254C13.8037 6.88671 14.7216 9.05426 16.535 9.65721Z" fill="#960000"/>
<path d="M24.4815 9.15424L24.4809 9.15365C23.0458 8.0936 20.8996 8.55306 19.6962 10.1784C18.494 11.8046 18.682 13.9908 20.1149 15.0516C20.6375 15.4387 21.2549 15.6238 21.8869 15.6238C22.9884 15.6238 24.1343 15.0616 24.9004 14.0278C26.1024 12.4017 25.9146 10.2155 24.4815 9.15424Z" fill="#960000"/>
</svg>
