<svg width="99" height="81" viewBox="0 0 99 81" fill="none" xmlns="http://www.w3.org/2000/svg">
<path d="M96.0996 37.5955H92.198C93.991 34.0266 94.9395 30.0613 94.9395 25.9499C94.9395 19.0185 92.244 12.5019 87.3499 7.60058C82.4556 2.69928 75.9483 0 69.0268 0C62.1053 0 55.598 2.69928 50.7037 7.60058L49.5 8.80596L48.2963 7.60077C43.402 2.69947 36.8949 0.000193529 29.9732 0.000193529C23.0515 0.000193529 16.5444 2.69947 11.6501 7.60058C6.75598 12.5019 4.06055 19.0185 4.06055 25.9499C4.06055 30.0611 5.00897 34.0266 6.802 37.5955H2.90039C1.2986 37.5955 0 38.8959 0 40.5C0 42.1041 1.2986 43.4045 2.90039 43.4045H10.7983C11.0747 43.7082 11.3583 44.0067 11.6503 44.2991L47.4492 80.1492C48.0156 80.7163 48.7579 81 49.5 81C50.2421 81 50.9846 80.7165 51.5508 80.1492L87.3497 44.2991C87.6417 44.0067 87.9253 43.7082 88.2017 43.4045H96.0996C97.7014 43.4045 99 42.1041 99 40.5C99 38.8959 97.7014 37.5955 96.0996 37.5955ZM9.86133 25.9499C9.86133 20.5701 11.9533 15.5123 15.752 11.7082C19.5506 7.904 24.6011 5.80906 29.9732 5.80906C35.3453 5.80906 40.3959 7.904 44.1946 11.7082L47.449 14.9672C48.5815 16.1016 50.4181 16.1016 51.5508 14.9672L54.8052 11.7082C58.6039 7.904 63.6545 5.80906 69.0266 5.80906C74.3987 5.80906 79.4492 7.904 83.248 11.7082C87.0467 15.5123 89.1387 20.5701 89.1387 25.9499C89.1387 30.1823 87.843 34.2152 85.4409 37.5955H70.2388L63.7452 27.3278C63.2011 26.4674 62.2478 25.9566 61.2303 25.9781C60.2138 26.0008 59.2834 26.5548 58.778 27.4385L49.2695 44.0643L37.0051 19.8238C36.4943 18.814 35.4401 18.1918 34.3145 18.2339C33.1849 18.2741 32.1816 18.9681 31.7438 20.0118L24.3693 37.5955H13.5591C11.157 34.2152 9.86133 30.1825 9.86133 25.9499ZM49.5 73.9877L18.9604 43.4045H26.2969C27.4648 43.4045 28.5188 42.703 28.971 41.6248L34.6643 28.05L46.5261 51.4946C47.008 52.4473 47.973 53.0582 49.0392 53.0855C49.0642 53.0861 49.0889 53.0865 49.1137 53.0865C50.1512 53.0865 51.1126 52.5304 51.6302 51.6255L61.4198 34.5081L66.1923 42.0545C66.7241 42.8949 67.6487 43.4045 68.6426 43.4045H80.0396L49.5 73.9877Z" fill="white"/>
</svg>
