<svg width="50" height="45" viewBox="0 0 50 45" fill="none" xmlns="http://www.w3.org/2000/svg">
<path d="M20.2703 0H2.7027C1.21243 0 0 1.21243 0 2.7027V41.8919C0 43.3822 1.21243 44.5946 2.7027 44.5946H8.10811C10.025 44.5946 10.7615 43.0841 10.8084 42.002C10.8084 42.002 22.973 2.77054 22.973 2.7027C22.973 1.21243 21.7605 0 20.2703 0ZM9.48987 41.6916C9.46973 41.7565 9.45946 41.8239 9.45946 41.8919C9.45946 41.8953 9.44878 42.2605 9.27743 42.6032C9.05905 43.0399 8.68757 43.2432 8.10811 43.2432H2.7027C1.95757 43.2432 1.35135 42.637 1.35135 41.8919V2.7027C1.35135 1.95757 1.95757 1.35135 2.7027 1.35135H20.2703C20.9843 1.35135 21.5708 1.90811 21.6185 2.61027L9.48987 41.6916ZM47.2973 0H29.7297C28.2395 0 27.027 1.21243 27.027 2.7027V41.8919C27.027 43.3822 28.2395 44.5946 29.7297 44.5946H35.1351C37.052 44.5946 37.7885 43.0841 37.8354 42.002C37.8354 42.002 50 2.77054 50 2.7027C50 1.21243 48.7877 0 47.2973 0ZM36.5169 41.6916C36.4969 41.7565 36.4865 41.8239 36.4865 41.8919C36.4865 41.8953 36.4758 42.2605 36.3045 42.6032C36.0861 43.0399 35.7146 43.2432 35.1351 43.2432H29.7297C28.9846 43.2432 28.3784 42.637 28.3784 41.8919V2.7027C28.3784 1.95757 28.9846 1.35135 29.7297 1.35135H47.2973C48.0113 1.35135 48.5978 1.90811 48.6455 2.61027L36.5169 41.6916Z" fill="#F8721F"/>
</svg>
