<svg width="21" height="16" viewBox="0 0 21 16" fill="none" xmlns="http://www.w3.org/2000/svg">
<path d="M19.1176 1.29412C20.2941 2.58823 21 4 21 6.35294C21 10.4706 18.0588 14.1176 13.9412 16L12.8824 14.4706C16.7647 12.3529 17.5882 9.64706 17.8235 7.88235C17.2353 8.23529 16.4118 8.35294 15.5882 8.23529C13.4706 8 11.8235 6.35294 11.8235 4.11765C11.8235 3.05882 12.2941 2 13 1.17647C13.8235 0.352942 14.7647 0 15.9412 0C17.2353 0 18.4118 0.588234 19.1176 1.29412ZM7.35294 1.29412C8.52941 2.58823 9.23529 4 9.23529 6.35294C9.23529 10.4706 6.29412 14.1176 2.17647 16L1.11765 14.4706C5 12.3529 5.82353 9.64706 6.05882 7.88235C5.47059 8.23529 4.64706 8.35294 3.82353 8.23529C1.70588 8 0.0588226 6.35294 0.0588226 4.11765C0.0588226 3.05882 0.529411 2 1.23529 1.17647C1.94118 0.352942 3 0 4.17647 0C5.47059 0 6.64706 0.588234 7.35294 1.29412Z" fill="white"/>
</svg>
