<svg width="12" height="7" viewBox="0 0 12 7" fill="none" xmlns="http://www.w3.org/2000/svg">
<path fill-rule="evenodd" clip-rule="evenodd" d="M0.228518 0.256359C0.375027 0.105524 0.573628 0.0208007 0.780695 0.0208007C0.987762 0.0208007 1.18636 0.105524 1.33287 0.256359L5.98991 5.05687L10.6469 0.256359C10.7185 0.177224 10.8048 0.113751 10.9006 0.0697283C10.9964 0.0257053 11.0999 0.00203351 11.2048 0.00012535C11.3098 -0.00178281 11.414 0.0181118 11.5113 0.058622C11.6086 0.0991321 11.6969 0.159429 11.7711 0.235913C11.8453 0.312398 11.9038 0.403504 11.9431 0.503797C11.9824 0.604091 12.0017 0.711516 11.9999 0.819665C11.998 0.927814 11.9751 1.03447 11.9324 1.13327C11.8897 1.23207 11.8281 1.321 11.7513 1.39474L6.54209 6.76444C6.39558 6.91528 6.19698 7 5.98991 7C5.78284 7 5.58424 6.91528 5.43773 6.76444L0.228518 1.39474C0.0821904 1.24371 0 1.03899 0 0.825548C0 0.612101 0.0821904 0.407383 0.228518 0.256359Z" fill="#F8721F"/>
</svg>
