<svg width="30" height="24" viewBox="0 0 30 24" fill="none" xmlns="http://www.w3.org/2000/svg">
<g clip-path="url(#clip0_2393_1279)">
<path d="M22.2228 24.0004C21.4819 24.0004 20.7478 23.817 20.0825 23.4552C19.0579 22.9001 18.3187 21.9898 18.0007 20.8945C17.705 19.8809 17.803 18.8206 18.274 17.8803L8.09352 12.3555C6.85233 14.2377 4.28744 14.8812 2.24858 13.7759C0.132373 12.6272 -0.624031 10.0265 0.55871 7.97592C1.19134 6.88062 2.28812 6.12708 3.52588 5.88368C3.05828 4.70001 3.1408 3.35297 3.79577 2.21766C4.99914 0.132079 7.72907 -0.614795 9.87967 0.552196C10.9214 1.11735 11.6744 2.04261 11.9976 3.15625C12.3053 4.21155 12.1936 5.31852 11.6847 6.29046L21.7277 11.7403C22.3156 10.8117 23.2302 10.1399 24.3184 9.84144C25.4667 9.52635 26.6735 9.66473 27.7153 10.2299C29.8659 11.3969 30.6361 14.0426 29.4327 16.1282C28.7777 17.2635 27.6362 18.0371 26.3521 18.2688C26.7853 19.4191 26.6976 20.7195 26.065 21.8148C25.4925 22.8084 24.5539 23.5252 23.4244 23.8353C23.0273 23.9454 22.6234 24.0004 22.2228 24.0004ZM7.44542 10.4216L20.3112 17.4035L19.8367 18.0337C19.7542 18.1421 19.6923 18.2371 19.6373 18.3305C19.2505 19.0007 19.1559 19.7792 19.3708 20.5194C19.5857 21.2596 20.086 21.8748 20.7788 22.2499C21.4716 22.625 22.2727 22.7167 23.0359 22.5083C23.7992 22.2999 24.4336 21.8148 24.8204 21.1429C25.3825 20.1693 25.3069 18.954 24.6295 18.0471L23.715 16.8234L25.269 16.9534C26.4604 17.0534 27.607 16.4666 28.1898 15.4563C29.0098 14.0359 28.4838 12.2338 27.0191 11.4386C26.3091 11.0534 25.4874 10.9601 24.7052 11.1735C23.923 11.3885 23.2732 11.8853 22.8761 12.5739C22.8159 12.6789 22.7592 12.7989 22.6973 12.9506L22.3999 13.6908L9.62008 6.75225L10.1152 6.12041C10.2166 5.99204 10.2923 5.88201 10.3524 5.77531C10.7495 5.08679 10.8475 4.2899 10.6258 3.53136C10.4057 2.77281 9.8917 2.14264 9.18171 1.75753C7.71704 0.96231 5.85697 1.47245 5.03696 2.89285C4.45419 3.90313 4.53842 5.15681 5.25013 6.0904L6.17673 7.30574L4.62266 7.18904C3.46914 7.10235 2.36376 7.67584 1.80162 8.65111C1.00224 10.0365 1.51453 11.7937 2.9431 12.5705C4.37167 13.3457 6.18532 12.8489 6.9847 11.4636C7.038 11.3719 7.08785 11.2668 7.14114 11.1435L7.44542 10.4216Z" fill="#FF803B"/>
<path d="M19.8588 14.5409C19.7711 14.5409 19.68 14.5192 19.5975 14.4742L12.9704 10.8665C12.7125 10.7265 12.6214 10.4097 12.7658 10.1613C12.9102 9.91126 13.2351 9.82291 13.493 9.96295L20.1201 13.5723C20.378 13.7123 20.4691 14.0291 20.3247 14.2775C20.2267 14.4459 20.0462 14.5409 19.8588 14.5409Z" fill="#FF803B"/>
</g>
<defs>
<clipPath id="clip0_2393_1279">
<rect width="30" height="24" fill="white"/>
</clipPath>
</defs>
</svg>
