<svg width="120" height="98" viewBox="0 0 120 98" fill="none" xmlns="http://www.w3.org/2000/svg">
<path d="M118.049 47.9091C126.902 71.1941 105.268 108.202 60.4063 93.8408C36.5345 86.2017 -3.34328 103.426 0.223978 70.51C3.43391 40.8734 26.6836 30.9489 38.1609 26.4403C49.6345 21.9347 57.1745 -2.2181 80.5987 0.164955C110.821 3.24586 109.198 24.6271 118.049 47.9091Z" fill="#FF803B"/>
<mask id="mask0_517_4672" style="mask-type:alpha" maskUnits="userSpaceOnUse" x="0" y="0" width="120" height="98">
<path d="M118.049 47.9091C126.902 71.1941 105.268 108.202 60.4063 93.8408C36.5345 86.2017 -3.34328 103.426 0.223978 70.51C3.43391 40.8734 26.6836 30.9489 38.1609 26.4403C49.6345 21.9347 57.1745 -2.2181 80.5987 0.164955C110.821 3.24586 109.198 24.6271 118.049 47.9091Z" fill="#17235B"/>
</mask>
<g mask="url(#mask0_517_4672)">
<path d="M61.9275 28.8324C61.3286 29.0014 60.0437 30.7152 61.0841 31.4738C61.4896 31.7701 61.519 34.6438 63.8496 35.654C69.2969 38.0118 74.2966 36.3866 75.9351 37.6708C76.634 38.2157 73.263 49.2548 74.4802 54.6709C76.1187 61.9824 78.9909 73.7488 78.5531 77.0304C76.5181 84.3583 77.2554 90.1056 75.7907 93.5816C75.4077 94.4861 71.052 94.6618 70.7586 95.3371C69.9439 97.2228 70.5848 97.4715 71.4221 97.4715C73.7143 97.4715 77.1749 97.4715 79.5769 97.4715C81.979 97.4715 85.3718 75.3926 85.3718 75.3926C85.3718 75.3926 97.3513 86.2091 98.8581 83.4404C101.698 77.1704 106.826 74.2394 107.451 74.2171C107.338 74.4047 100.149 78.4702 99.405 85.1675C98.5421 92.9093 108.262 92.0175 108.262 92.0175C108.262 92.0175 103.796 92.2691 100.615 92.4507C97.4348 92.6324 94.0638 97.0166 97.7756 97.2199C101.491 97.4209 120.273 97.6658 123.769 97.2199C127.262 96.7739 129.046 95.5947 126.754 92.715C128.173 92.1768 133.598 91.8514 135.72 86.7957C138.44 80.3218 134.615 73.2619 134.615 73.2619C134.615 73.2619 135.314 80.5898 132.722 84.6457C130.978 87.3853 128.865 87.3474 126.898 87.2394C130.101 66.3457 97.7304 46.7363 95.7376 41.9314C92.0258 32.988 92.4637 22.6116 89.0377 21.8946C89.3755 17.7814 83.6513 12.0117 83.6513 12.0117C83.6513 12.0117 83.1398 16.6126 82.483 19.3016C79.9719 18.6643 76.0412 20.3431 74.6208 21.3028C73.2013 22.2616 73.9317 24.5554 70.9474 25.7443C68.9749 26.5282 64.2874 28.1601 61.9275 28.8324Z" fill="white"/>
<path d="M37.1729 64.5741C41.2714 62.7196 47.0053 51.2532 47.8261 50.3263C48.6438 49.3994 48.5279 46.2734 49.4645 46.0411C50.4011 45.8088 50.4011 44.8812 50.2823 44.305C50.1664 43.7251 50.1664 43.2635 50.4011 43.0305C50.6359 42.7982 51.2189 41.409 50.4011 40.7144C49.5804 40.0198 48.2925 41.1767 47.4747 43.2635C46.654 45.3473 47.3559 45.6942 45.1344 47.778C42.9098 49.8647 36.5899 55.0768 36.5899 55.0768C36.5899 55.0768 36.5899 55.0768 36.3551 54.1499C36.1204 53.2231 36.7057 52.0661 37.6461 50.674C38.5827 49.2848 37.2917 47.778 37.1729 47.3157C37.057 46.8533 35.3027 46.0411 35.5344 45.5795C35.7691 45.1142 35.3027 42.1899 35.3027 42.1899C35.3027 42.1899 33.7801 45.2326 33.5446 44.882C33.3129 44.535 28.5125 45.2326 28.5125 45.2326C28.5125 45.2326 26.1722 41.4097 24.6495 42.3366C23.1299 43.2635 24.1823 48.3579 24.8842 51.6016C25.5861 54.8453 24.2982 58.4359 22.0737 61.4495C19.8522 64.4602 15.4031 61.3319 10.0198 69.44C4.63336 77.548 6.74203 84.2677 6.15675 87.5106C5.57071 90.7543 -1.33455 88.6668 -6.60208 88.5521C-11.8696 88.4375 -13.5081 91.1012 -13.0409 92.4896C-12.5707 93.8788 -4.84774 94.2295 -4.02624 93.6332C-3.2085 93.0376 -4.02624 92.375 -4.02624 92.375L6.62392 92.8373C6.62392 92.8373 12.1262 93.6495 17.7435 93.6339C23.3609 93.6183 23.2458 92.7227 23.2458 92.7227C23.2458 92.7227 26.288 92.7227 27.3412 92.608C28.3974 92.4904 27.9272 90.9865 27.5759 90.1736C27.2254 89.3614 23.9476 89.9413 23.9476 89.9413V89.0144C23.9476 89.0144 26.7582 87.393 27.6948 85.8891C28.6284 84.3823 27.5759 78.9372 28.3967 79.6348C29.2144 80.3294 32.8427 93.4173 33.1933 93.5319C33.5438 93.6495 37.7582 93.8788 37.6423 92.7227C37.5265 91.5628 36.0038 91.1012 34.7159 89.9413C33.428 88.7851 34.3653 75.3466 35.3019 74.3044C36.2385 73.2621 37.1729 64.5741 37.1729 64.5741Z" fill="white"/>
<path d="M36.8279 89.1059C31.8989 86.0476 32.1373 91.3646 34.5484 92.8208C36.9595 94.277 37.2687 91.4383 37.8577 92.6012C38.4468 93.7671 40.2854 96.0995 40.2854 96.0995C40.2854 96.0995 41.6861 95.7332 42.2752 96.4152C42.8612 97.0971 48.6757 95.7332 49.0428 95.8799C49.4129 96.0265 50.5173 94.6403 50.5173 94.6403C50.5173 94.6403 50.5173 95.7332 51.177 96.0995C51.8405 96.4628 57.0652 96.4152 57.0652 96.4152C57.0652 96.4152 56.2542 95.9528 57.9476 96.3161C59.641 96.6795 61.3344 95.9528 61.3344 95.2233C61.3344 94.4967 59.7862 93.6941 59.3446 92.5312C58.9038 91.3654 59.8599 88.453 59.8599 88.453C66.5561 83.0623 64.6438 76.0724 64.6438 76.0724L65.4547 74.9795C67.1451 75.5624 69.4276 73.0141 70.0166 71.9212C70.6026 70.8283 70.3093 69.9558 68.4714 67.26C66.6298 64.568 63.4649 63.6188 63.1723 62.9652C62.8796 62.3085 60.449 61.7256 60.449 61.7256C60.449 61.7256 59.5891 56.7235 56.9915 53.4232C50.2209 44.8305 55.8871 60.4168 55.8871 60.4168C55.8871 60.4168 52.8704 51.1682 51.2507 51.2412C49.6311 51.3141 51.3245 55.1727 51.6916 58.0844C52.0617 60.9997 54.782 63.4751 55.4455 65.148C56.109 66.8238 53.9003 69.8821 53.9003 69.8821C53.9003 69.8821 48.3823 66.1672 42.0525 73.6863C35.7235 81.2048 36.8279 89.1059 36.8279 89.1059Z" fill="white"/>
</g>
</svg>
