<svg width="99" height="68" viewBox="0 0 99 68" fill="none" xmlns="http://www.w3.org/2000/svg">
<path d="M42.4971 8.65109C39.2582 9.47637 37.3019 12.7706 38.1272 16.0095C38.4526 17.283 39.1588 18.3601 40.0936 19.1441C40.1233 19.1691 40.1514 19.1917 40.1811 19.2167C42.6991 21.3169 44.1217 24.5899 43.7559 28.0214C43.7298 28.2758 43.6646 28.5299 43.6455 28.79C43.6121 29.212 43.665 29.5785 43.7669 29.9761C43.9517 30.697 44.3092 31.1912 44.8076 31.8169C46.5816 34.4951 47.0262 37.949 45.7897 41.0829C45.2896 42.2606 45.1562 43.6042 45.4972 44.9388C46.3225 48.1778 49.6167 50.134 52.8556 49.3087C56.0945 48.4834 58.0508 45.1893 57.2255 41.9504C56.89 40.6375 56.1501 39.5345 55.1736 38.7436C53.9779 37.7443 53.0615 36.5124 52.4473 35.162C51.9016 33.9627 52.7543 32.6713 54.0652 32.5356C56.0919 32.3255 58.1826 32.4016 60.288 32.8009C62.6791 33.2535 64.9249 34.102 66.9664 35.2655C68.1128 35.9197 68.2936 37.843 67.3111 38.7225C66.3057 39.6218 65.1082 40.3309 63.7668 40.7799C62.568 41.1606 61.4762 41.9154 60.6853 43.0158C58.7349 45.7292 59.354 49.5117 62.0674 51.4622C64.7808 53.4127 68.5634 52.7936 70.5138 50.0802C71.3169 48.9617 71.6843 47.6625 71.649 46.3836C71.6423 43.0141 73.4027 39.5661 76.0302 37.7213C76.7974 37.237 77.2364 36.9913 77.6702 36.3875C77.9092 36.0553 78.0652 35.7629 78.2171 35.3272C78.3017 35.0793 78.3271 34.8185 78.395 34.5711C79.308 31.2435 81.8293 28.7153 84.9381 27.6803C84.9739 27.6674 85.0093 27.6564 85.0467 27.6459C86.204 27.2562 87.2541 26.5131 88.0215 25.4448C89.972 22.7314 89.3529 18.9488 86.6395 16.9984C83.926 15.0479 80.1435 15.667 78.193 18.3804C77.3965 19.4879 77.0286 20.7705 77.0561 22.0374C77.0885 24.7624 75.9948 27.2358 74.2015 29.069C70.0603 31.7775 65.8522 31.4626 61.3335 30.608C57.3245 29.8491 53.3487 28.7073 50.6645 25.6569C49.8491 24.7316 49.2797 23.6035 49.044 22.3927C48.6909 20.5787 48.8383 18.6644 49.5785 16.8431C50.0662 15.6751 50.1927 14.3445 49.8546 13.0249C49.0293 9.786 45.7351 7.82975 42.4962 8.65503L42.4971 8.65109Z" fill="#10131C" stroke="#10131C" stroke-width="1.95428"/>
<path d="M74.6678 51.4849C75.8062 49.8712 78.0396 49.4861 79.6531 50.6259L79.6541 50.6261C81.2679 51.7644 81.6529 53.9978 80.5131 55.6114L80.5129 55.6123C79.3746 57.2261 77.1412 57.6112 75.5276 56.4714L75.5267 56.4712C73.9129 55.3328 73.5278 53.0994 74.6676 51.4859L74.6678 51.4849Z" fill="#10131C" stroke="#10131C" stroke-width="2.47377"/>
<path d="M87.3851 33.484C88.5253 31.8701 90.7571 31.4854 92.3715 32.6242L92.4176 32.6561C93.9918 33.8059 94.358 36.0089 93.231 37.6075C92.9821 37.9596 92.6108 38.3033 92.2035 38.5714C91.7827 38.8484 91.4239 38.9792 91.2321 39.007L91.1671 39.0169L91.1026 39.033L90.9525 39.0804C90.9205 39.0928 90.8852 39.1081 90.8476 39.1267C90.0721 39.5086 89.3575 39.8357 88.8211 40.2334C88.2645 40.6462 87.8912 41.1274 87.5917 41.7662L87.4676 42.0491C87.2273 42.6353 87.1574 43.2192 87.1378 43.7233C87.1289 43.9538 87.1308 44.208 87.1353 44.4471L87.1474 45.0801C87.1509 45.799 86.9399 46.523 86.4927 47.1576C85.3525 48.7717 83.1207 49.1562 81.5062 48.0174L81.5072 48.0176C79.8934 46.8774 79.5087 44.6456 80.6474 43.0312L80.6483 43.0314C81.0937 42.3995 81.7043 41.9565 82.3794 41.7199C82.696 41.609 83.2194 41.4488 83.6415 41.2793C84.1028 41.0941 84.6213 40.8358 85.0877 40.4218L85.0886 40.4221C85.5989 39.9687 85.9799 39.5012 86.2346 38.9053C86.4137 38.4864 86.5095 38.0476 86.577 37.5985L86.6378 37.146C86.6841 36.7604 86.695 36.3828 86.7043 36.0614C86.7141 35.7226 86.7215 35.4455 86.7488 35.1758C86.8089 34.5875 87.0169 34.0061 87.3851 33.484Z" fill="#10131C" stroke="#10131C" stroke-width="2.47377"/>
<path d="M81.5236 56.3251C79.9914 58.4974 76.9859 59.0161 74.814 57.4819C72.6417 55.9497 72.123 52.9442 73.6572 50.7723C75.1895 48.6 78.195 48.0813 80.3668 49.6155C82.5391 51.1478 83.0578 54.1533 81.5236 56.3251Z" fill="#10131C" stroke="#10131C" stroke-width="1.58322"/>
<path d="M93.0841 31.6137C90.9118 30.0814 87.9087 30.5986 86.3745 32.7705C85.8806 33.4707 85.5995 34.2561 85.5183 35.0517C85.453 35.698 85.4868 36.3533 85.4092 36.999C85.2657 38.198 85.102 38.755 84.2668 39.497C83.631 40.0613 82.7724 40.272 81.9708 40.5529C81.0598 40.872 80.2351 41.4698 79.6369 42.3187C78.1046 44.491 78.6218 47.4941 80.7937 49.0283C82.9659 50.5606 85.9691 50.0434 87.5033 47.8715C88.1043 47.0191 88.39 46.0406 88.3848 45.0716C88.3791 44.2098 88.2852 43.3165 88.6125 42.5184C89.119 41.2822 89.6991 41.0712 91.3943 40.2363C91.3991 40.2332 91.4054 40.2326 91.4098 40.2314C92.2727 40.1063 93.5339 39.3221 94.2413 38.3213C95.7735 36.149 95.2564 33.1459 93.0845 31.6117L93.0841 31.6137Z" fill="#10131C" stroke="#10131C" stroke-width="1.58322"/>
<path d="M6.95515 29.9779C8.93391 29.1977 11.1617 30.1139 12.031 32.0288L12.1113 32.217C12.2125 32.4754 12.2841 32.7355 12.3294 32.9925L12.3228 33.023L12.3703 33.2701C12.5101 34.0013 12.7172 34.7311 13.0011 35.4505L13.0009 35.4515C14.6019 39.5097 18.3467 42.5603 22.4525 43.1636L22.533 43.175L22.6136 43.1764C22.6066 43.1763 22.6014 43.1765 22.5996 43.1764C22.6008 43.1765 22.6034 43.1768 22.6074 43.1771C22.612 43.1775 22.6174 43.1773 22.6252 43.178L22.6369 43.1795L22.6488 43.1801C23.2336 43.2158 23.85 43.0554 24.3404 42.6893C24.5296 42.5481 24.7026 42.3707 24.8436 42.1637C24.8419 42.5241 24.867 42.8871 24.9227 43.2498L24.9952 43.6491C25.0835 44.0646 25.2882 44.3903 25.4796 44.621C25.7016 44.8933 26.0511 45.5494 26.2331 46.0117L26.2329 46.0127C27.038 48.055 26.0352 50.3624 23.9931 51.1676C22.0144 51.9477 19.7865 51.0316 18.9172 49.1167L18.8379 48.9287C18.6655 48.4907 18.4723 47.7953 18.4453 47.4721L18.4394 47.3979L18.424 47.3256C18.2876 46.6632 18.0921 46.0044 17.8384 45.3567L17.8369 45.3544L17.6827 44.9814C16.0269 41.1618 12.4587 38.2949 8.54178 37.6671L8.45293 37.6529L8.36331 37.6515C6.79547 37.6298 5.3257 36.6779 4.71627 35.133C3.91096 33.0907 4.91314 30.7833 6.95515 29.9779ZM30.3023 22.1213C31.1762 20.1087 33.5174 19.1849 35.5306 20.0588C37.4812 20.9058 38.4096 23.1308 37.6699 25.098L37.593 25.2872C37.4326 25.6561 37.2234 25.9875 36.9784 26.2774L36.93 26.3348L36.8896 26.397C36.5193 26.9611 36.191 27.5646 35.9129 28.2032L35.9127 28.2041C34.1792 32.1949 34.8135 36.6154 37.1871 39.8952L37.2394 39.9675L37.3024 40.032C38.327 41.0858 38.7121 42.6567 38.2121 44.1031L38.101 44.3908C37.2271 46.4035 34.885 47.3271 32.8717 46.453L32.8708 46.4528C31.4031 45.8159 30.5131 44.3959 30.4795 42.8899L30.4837 42.5881C30.5071 42.1706 30.4369 41.6289 30.0929 41.1418C29.9379 40.9199 29.7698 40.7105 29.5927 40.5112C30.4684 40.6904 31.4073 40.2576 31.8634 39.4722L31.8636 39.4713C32.0804 39.097 32.298 38.6889 32.464 38.3062C34.22 34.2646 33.5452 29.7805 31.0945 26.4866L31.0573 26.4367L31.0145 26.3895C30.0072 25.2891 29.6721 23.6748 30.2606 22.2172L30.3023 22.1213ZM24.7712 35.2253C25.4703 34.9493 26.2519 35.215 26.6476 35.8215L26.6481 35.8236C26.7075 35.9141 26.7574 36.0087 26.7972 36.1096C26.8564 36.2613 26.8906 36.4119 26.9031 36.5581L26.9094 36.6304L26.9238 36.7025C27.0038 37.0901 27.1185 37.4761 27.2668 37.8526C27.4507 38.3196 27.6816 38.7578 27.9519 39.1626C26.8682 38.6196 25.5475 39.133 25.1231 40.2738C25.0584 39.8765 24.9589 39.4791 24.8202 39.0864L24.7271 38.8374C24.5628 38.421 24.3606 38.0237 24.1245 37.6542L23.973 37.4166C23.9439 37.3622 23.9172 37.3065 23.8944 37.2488L23.8935 37.2486C23.5775 36.4473 23.9708 35.5417 24.7712 35.2253Z" fill="#10131C" stroke="#10131C" stroke-width="2.47377"/>
</svg>
